 <svg xmlns="http://www.w3.org/2000/svg" width="212.701" height="26" viewBox="0 0 212.701 38">
                            <g id="Group_16217" data-name="Group 16217" transform="translate(0)">
                                <g id="Uniswap" transform="translate(0 2.478)">
                                    <path id="Path_6204" data-name="Path 6204" d="M29.441,58.209c.709,1.241-.886,1.6-1.6,1.684-1.064.089-1.33-.532-1.152-1.33a1.93,1.93,0,0,1,.443-.709,1.32,1.32,0,0,1,.8-.355,1.192,1.192,0,0,1,.8.177A1.1,1.1,0,0,1,29.441,58.209Z" transform="translate(-16.146 -42.431)" fill="#eb1a6b" />
                                    <path id="Path_6205" data-name="Path 6205" d="M34.595,55.8c-.8,6.2,10.016,4.875,9.839,9.75a5.132,5.132,0,0,0-1.6-7.091C40,56.686,36.367,57.661,34.595,55.8Z" transform="translate(-17.044 -42.238)" fill="#eb1a6b" />
                                    <path id="Path_6206" data-name="Path 6206" d="M41.677,53.077c-.089-.089-.177-.089-.177-.177A.191.191,0,0,0,41.677,53.077Z" transform="translate(-17.834 -41.909)" fill="#eb1a6b" />
                                    <path id="Path_6207" data-name="Path 6207" d="M42.33,56.98h0a1.854,1.854,0,0,0-.355-.532,2.175,2.175,0,0,0-1.507-.975,5.232,5.232,0,0,0-1.241-.177c-.443,0-.8-.089-1.241-.089a25.576,25.576,0,0,1-2.571-.355c-.177-.089-.443-.089-.62-.177-.089,0-.177-.089-.355-.089-.089-.089-.177-.089-.355-.177a3.349,3.349,0,0,1-1.064-.8c-.62-.62-1.152-1.33-1.684-1.95a16.988,16.988,0,0,0-1.6-1.95,6.409,6.409,0,0,0-1.95-1.507A7.466,7.466,0,0,0,25.4,47.5a5.059,5.059,0,0,1,2.571.355,7.281,7.281,0,0,1,2.216,1.418,7.655,7.655,0,0,1,1.152,1.241A9.157,9.157,0,0,1,37.9,51.4h0A5.823,5.823,0,0,1,39.4,52.46c.089.089.177.089.177.177a10.623,10.623,0,0,1,.975,1.064h0A5.038,5.038,0,0,1,42.33,56.98Z" transform="translate(-16.004 -41.291)" fill="#eb1a6b" />
                                    <path id="Path_6208" data-name="Path 6208" d="M44.5,58.2Z" transform="translate(-18.174 -42.511)" fill="#eb1a6b" />
                                    <path id="Path_6209" data-name="Path 6209" d="M25.689,48.3a2.85,2.85,0,0,1,1.861.886,4.946,4.946,0,0,1,.8,1.861,7.507,7.507,0,0,0,.355,1.507,3.854,3.854,0,0,0,.355.62c.089.177.266.355.355.532v.177c-.266.266-.886,0-1.152-.177a3.656,3.656,0,0,1-1.152-.886A6.266,6.266,0,0,1,25.6,48.743,3.838,3.838,0,0,0,25.689,48.3Z" transform="translate(-16.027 -41.386)" fill="#eb1a6b" />
                                    <path id="Path_6210" data-name="Path 6210" d="M38.672,62.3c-1.507,4.166,5.318,7,2.748,11.257a5.428,5.428,0,0,0,2.748-6.914C43.281,64.339,40.445,63.452,38.672,62.3Z" transform="translate(-17.487 -42.977)" fill="#eb1a6b" />
                                    <path id="Path_6211" data-name="Path 6211" d="M28.6,67.582l1.33-.8a7.487,7.487,0,0,1,1.507-.443,13.337,13.337,0,0,0,2.836-.62,3.127,3.127,0,0,0,1.152-.709,2.26,2.26,0,0,0,.709-1.064,3.445,3.445,0,0,0,.177-1.33,3.716,3.716,0,0,0-.355-1.418,3.7,3.7,0,0,1,.8,1.418,3.255,3.255,0,0,1,.089,1.6,3.555,3.555,0,0,1-.8,1.507,3.86,3.86,0,0,1-1.418.886,10.306,10.306,0,0,1-1.6.355c-.532,0-.975.089-1.507.089A8.509,8.509,0,0,0,28.6,67.582Z" transform="translate(-16.368 -42.852)" fill="#eb1a6b" />
                                    <path id="Path_6212" data-name="Path 6212" d="M37.616,75.875c-.177.089-.266.266-.443.355l-.532.266a2.831,2.831,0,0,1-1.241.266A2.769,2.769,0,0,1,33.007,74.9c-.355-.62-.532-1.33-.886-1.95a2.874,2.874,0,0,0-2.571-1.507,1.454,1.454,0,0,0-1.064.62,1.5,1.5,0,0,0,1.507,2.216.326.326,0,0,0,.266-.089c.089,0,.177-.089.266-.177a1.854,1.854,0,0,0,.355-.532,1.728,1.728,0,0,0,.089-.709.814.814,0,0,0-.355-.532.8.8,0,0,1,.532.532,4.35,4.35,0,0,0-.089.975,1.782,1.782,0,0,1-.355.709,1.224,1.224,0,0,1-.355.266.672.672,0,0,1-.355.177,2.454,2.454,0,0,1-.8.089,2.275,2.275,0,0,1-1.064-.443c-.355-.266-.62-.709-.975-.975a3.7,3.7,0,0,0-1.33-.975,5,5,0,0,0-1.064-.355c-.177,0-.355-.089-.532-.089-.089,0-.532-.089-.532-.089.62-.532,1.241-.975,1.861-1.418a9.906,9.906,0,0,1,2.216-.975,5.8,5.8,0,0,1,2.482-.177,6.529,6.529,0,0,1,1.241.355,5.026,5.026,0,0,1,1.152.709,4.167,4.167,0,0,1,.8,1.064,5.081,5.081,0,0,1,.355,1.241c.266,1.241.177,3.191,1.773,3.457h.532a1.124,1.124,0,0,0,.532-.089A2.63,2.63,0,0,0,37.616,75.875Z" transform="translate(-15.811 -43.788)" fill="#eb1a6b" />
                                    <path id="Path_6213" data-name="Path 6213" d="M28.7,75.2Z" transform="translate(-16.379 -44.443)" fill="#eb1a6b" />
                                    <path id="Path_6214" data-name="Path 6214" d="M25.7,53.707a4.321,4.321,0,0,1-.266.62,2.771,2.771,0,0,1-.975.8,2.454,2.454,0,0,1-1.152.266h-.266a1.179,1.179,0,0,0-.709.266.9.9,0,0,0-.355.62c0,.089-.089.266-.089.355,0,.355-.089.62-.089,1.064a7.042,7.042,0,0,1-.532,1.95,4.7,4.7,0,0,0-.709,2.393,2.09,2.09,0,0,0,.8,1.418c.709.8,2.393,1.152,2.039,3.014-.266,1.152-2.127,2.3-4.7,2.748.266,0-.355-1.064-.355-1.152a10.552,10.552,0,0,1-.8-1.33,5.052,5.052,0,0,1-.443-3.014,7.212,7.212,0,0,1,1.6-2.748,7.474,7.474,0,0,0,1.773-3.546,5.307,5.307,0,0,1,.177-1.064A6.529,6.529,0,0,1,21,55.125a1.859,1.859,0,0,1,.532-.709.672.672,0,0,0,.177-.355.8.8,0,0,0-.089-.443l-4.166-7.534,6.027,7.446c.089.089.177.177.266.177.089.089.177.089.355.089a.67.67,0,0,0,.355-.089c.089-.089.177-.089.266-.177s.089-.177.089-.355a.533.533,0,0,0-.089-.355,18.569,18.569,0,0,0-1.241-1.507L21.98,49.452,18.966,45.73,14.8,40.5l4.521,4.875,3.191,3.546,1.6,1.773c.532.62,1.064,1.152,1.6,1.861l.089.089v.177A2.733,2.733,0,0,1,25.7,53.707Z" transform="translate(-14.8 -40.5)" fill="#eb1a6b" />
                                    <path id="Path_6215" data-name="Path 6215" d="M28.6,75l-.8-.8A2.288,2.288,0,0,0,28.6,75Z" transform="translate(-16.277 -44.329)" fill="#eb1a6b" />
                                    <path id="Path_6216" data-name="Path 6216" d="M109.3,52.479c-2.925.709-4.255,3.014-3.457,5.761a6.185,6.185,0,0,0,3.014,3.28c2.748,1.6,3.634,2.216,4.077,3.191a2.335,2.335,0,0,1,.266,1.861,3.277,3.277,0,0,1-3.457,2.659,3.2,3.2,0,0,1-3.368-2.659c-.089-.709-.266-.886-.532-.886-.355,0-.443.177-.443,1.861v1.861l1.152.355a9.022,9.022,0,0,0,5.939-.177c3.014-1.418,4.166-4.166,2.836-6.737-.532-.975-1.773-2.039-3.9-3.368-2.3-1.418-3.28-2.393-3.457-3.368-.266-1.6,1.152-2.836,3.1-2.836,1.507,0,2.127.355,2.659,1.507.355.709.532.975.975.975s.532-.089.355-.532a6.365,6.365,0,0,1-.177-1.507c0-.709-.089-1.064-.355-1.152A17.143,17.143,0,0,0,109.3,52.479Zm-58.5.62c0,.355.177.443.532.443,1.064,0,1.152.266,1.241,6.737.089,5.584.177,6.027.62,6.914a5.77,5.77,0,0,0,2.836,2.571A6.437,6.437,0,0,0,59.4,70.3a6.014,6.014,0,0,0,3.457-.62,6.932,6.932,0,0,0,1.95-1.418c1.241-1.507,1.418-2.3,1.507-8.509.177-6.027.177-6.116,1.152-6.116.266,0,.355-.177.355-.443,0-.443-.177-.443-2.659-.443s-2.659,0-2.659.443c0,.355.177.443.709.532,1.152.089,1.241.532,1.241,6.027,0,5.584-.177,6.648-1.418,7.8a4.255,4.255,0,0,1-3.457,1.418c-2.127,0-3.723-.975-4.166-2.748a35.46,35.46,0,0,1-.177-6.559l.089-5.673.8-.266A1.883,1.883,0,0,0,57,53.1c.089-.355-.266-.355-3.014-.355C50.977,52.657,50.8,52.657,50.8,53.1Zm20.653,0c0,.355.177.443.62.443a1.815,1.815,0,0,1,2.039,1.418,51.6,51.6,0,0,1,.177,6.737c-.089,6.559-.177,7-1.507,7.268-.443.089-.62.266-.62.532,0,.355.177.443,3.1.443,2.836,0,3.1,0,3.1-.355,0-.266-.266-.443-.975-.62-.886-.266-.975-.355-1.241-1.064-.355-1.064-.355-11.08-.089-10.991a14.539,14.539,0,0,1,1.95,2.039c.975,1.152,3.546,4.077,5.85,6.471,3.546,3.811,4.166,4.521,4.7,4.521h.62l.089-7.8c.089-5.584.177-7.889.355-8.066a2.492,2.492,0,0,1,.975-.443c.443-.089.709-.266.709-.443,0-.266-.532-.355-3.014-.355-2.925-.089-3.014-.089-3.014.355,0,.355.177.443.532.443a2.633,2.633,0,0,1,1.152.532l.62.532.089,5.318c0,3.014,0,5.318-.089,5.318a10.6,10.6,0,0,1-1.507-1.507c-.709-.8-2.748-3.1-4.521-5.052s-3.723-4.077-4.343-4.786l-1.064-1.241h-2.3C71.541,52.657,71.453,52.657,71.453,53.1Zm23.223,0c0,.355.177.443.62.443a2.172,2.172,0,0,1,1.064.355c.443.266.443.709.532,6.825.089,7.623,0,8.066-1.33,8.243-.62.089-.886.266-.886.532,0,.355.266.443,3.368.443,3.191,0,3.368,0,3.368-.443,0-.355-.177-.443-.532-.443a2.181,2.181,0,0,1-.975-.355c-.443-.266-.443-.709-.532-7.268-.089-6.736-.089-7,.355-7.446a1.616,1.616,0,0,1,.975-.443c.443,0,.532-.089.532-.443,0-.443-.177-.443-3.368-.443C94.853,52.657,94.676,52.657,94.676,53.1Zm23.312,0a.591.591,0,0,0,.62.443,1.793,1.793,0,0,1,.975.532,86.151,86.151,0,0,1,3.457,8.243l2.925,7.712.8.089.8.089,2.039-5.5c1.152-3.014,2.216-5.761,2.3-6.027.266-.532.266-.443.975,1.33.355,1.064,1.418,3.723,2.3,6.027l1.6,4.166h.709c.355,0,.709-.089.8-.266s1.064-2.748,2.3-5.761c1.152-3.014,2.482-6.382,2.925-7.446.975-2.482,1.152-2.748,1.861-3.014.355-.089.62-.355.62-.532,0-.266-.443-.355-2.659-.355-2.482,0-2.659,0-2.659.443,0,.355.177.443.532.443.886,0,1.241.266,1.241.8,0,.443-4.255,11.878-4.521,12.143a99.7,99.7,0,0,1-4.077-11.523c-.177-.975.266-1.418,1.241-1.418.355,0,.532-.089.532-.443,0-.443-.177-.443-3.457-.443s-3.457,0-3.457.443a.406.406,0,0,0,.355.443,2.43,2.43,0,0,1,1.861,1.33c.355.975.089,1.95-1.95,7.268l-1.684,4.521-.355-.886c-.177-.443-1.241-3.28-2.3-6.2-2.127-5.761-2.127-6.027-.709-6.027.532,0,.62-.089.62-.443,0-.443-.177-.443-3.28-.443C117.9,52.657,117.811,52.657,117.988,53.1Zm44.851.177v.355c0,.089.266.089.266.089.177,0,.266.089.443.089.709.177,1.152.266,1.33.709.089.266.177,1.33.177,6.914,0,5.85,0,6.559-.177,6.914-.177.443-.532.709-1.418.975a1.5,1.5,0,0,0-.443.177.443.443,0,0,0,0,.532c.089.089.355.089.355.089h5.939a.377.377,0,0,0,.266-.62,1.5,1.5,0,0,0-.443-.177c-.8-.177-1.241-.443-1.418-.886a9.934,9.934,0,0,1-.177-3.014V62.761c.089.089.177.089.266.177a4.468,4.468,0,0,0,2.925.709,5.164,5.164,0,0,0,4.7-2.216,6.239,6.239,0,0,0,.532-5.318c-.62-2.039-2.482-3.368-5.052-3.457a35.842,35.842,0,0,0-4.432.089h-.266c-.975,0-2.216.177-2.836.177h0c-.177,0-.177,0-.266.089C162.839,53.189,162.839,53.277,162.839,53.277Zm9.839,8.155a4.239,4.239,0,0,0,.975-3.28c-.089-1.418-.709-4.166-3.9-4.166-.8,0-2.3.089-2.393,1.152a25.383,25.383,0,0,0-.089,3.457v3.191l.355.177h0a4.121,4.121,0,0,0,.8.266A5.1,5.1,0,0,0,172.678,61.432Zm-20.387-8.509a3.727,3.727,0,0,0,.443-.177s.355-.177.443,0c0,.089.177.355.532,1.241a1.26,1.26,0,0,1,.177.532c.443,1.241,1.152,3.014,1.507,3.989s1.064,2.748,1.6,4.166c.532,1.33,1.152,3.014,1.507,3.811a10.284,10.284,0,0,0,.8,1.684c.089.089.089.177.177.266.266.355.532.886,1.152.975a1.838,1.838,0,0,1,.532.177.275.275,0,0,1,.089.177v.266a.087.087,0,0,1-.089.089c0,.089-.177,0-.177,0h-6.559c-.089,0-.089-.177-.089-.177v-.177a.438.438,0,0,1,.089-.266,1.838,1.838,0,0,1,.532-.177,1.435,1.435,0,0,0,1.241-1.064v-.089c.177-.355.089-.62-.709-2.482a9.447,9.447,0,0,0-.8-1.684h-5.939l-.177.443a17.372,17.372,0,0,0-.975,3.1,1.365,1.365,0,0,0,1.152,1.773,1.838,1.838,0,0,1,.532.177,1.275,1.275,0,0,1,.177.266v.177a.275.275,0,0,1-.089.177c-.089.089-.266,0-.266,0h-5.407a.313.313,0,0,1-.266-.266v-.177s0-.089.177-.266a.875.875,0,0,1,.532-.177c.709-.089,1.152-.886,1.418-1.33a.087.087,0,0,1,.089-.089c.089-.177.532-1.152.975-2.216s.886-2.3,1.064-2.659c.532-1.33,1.064-2.571,1.861-4.521.443-1.064,1.064-2.659,1.418-3.546l.62-1.6Zm-.177,3.811a9.938,9.938,0,0,1,.443,1.152c.089.266.443,1.064.709,1.773s.62,1.507.8,1.861a5.273,5.273,0,0,1,.266.62h-2.393a10.354,10.354,0,0,1-2.393-.089.917.917,0,0,0,.089-.355c.089-.266.62-1.684,1.684-4.7a7.267,7.267,0,0,0,.355-.975C151.759,56.025,151.848,56.114,152.113,56.734Z" transform="translate(-18.89 -41.843)" fill="#fff" fill-rule="evenodd" />
                                </g>
                                <g id="Group_16213" data-name="Group 16213" transform="translate(166.441 0)">
                                    <rect id="Rectangle_10713" data-name="Rectangle 10713" width="46.261" height="38" rx="6" fill="#242424" />
                                    <text id="V2" transform="translate(22.565 23.957)" fill="#fff" font-size="19" font-family="SourceCodePro-Regular, Source Code Pro"><tspan x="-11.4" y="0">V2</tspan></text>
                                </g>
                            </g>
                        </svg>