<svg xmlns="http://www.w3.org/2000/svg" width="108.781" height="25" viewBox="0 0 108.781 27.956">
                            <defs>
                                <linearGradient id="linear-gradient" x1="0.421" y1="0.789" x2="0.62" y2="0.241" gradientUnits="objectBoundingBox">
                                    <stop offset="0" stop-color="#29afe5" />
                                    <stop offset="0.361" stop-color="#9181c3" />
                                    <stop offset="1" stop-color="#fa52a0" />
                                </linearGradient>
                            </defs>
                            <g id="Layer_x0020_1" transform="translate(0 0)">
                                <g id="_2090540487760" transform="translate(0 0)">
                                    <g id="Group_16212" data-name="Group 16212" transform="translate(0)">
                                        <path id="Path_6217" data-name="Path 6217" d="M29.526,18l-5.883,8.678-.048-.048c-2.108,2.843-8.923,1.666-15.344-2.891C1.878,19.227-1.8,13.493.015,10.405l-.048-.048L5.85,1.828h0C7.857-1.116,14.773.061,21.242,4.618,27.86,8.936,31.438,15.064,29.526,18Z" transform="translate(0.448 -0.215)" fill="url(#linear-gradient)" />
                                        <path id="Path_6218" data-name="Path 6218" d="M161.583,36.1c-1.763,2.55-8.039,1.273-14.023-2.939-6.123-4.217-9.7-9.562-7.891-12.112,1.763-2.55,8.039-1.273,14.023,2.939S163.254,33.546,161.583,36.1ZM156,32.273c-.884,1.273-3.972.639-7.012-1.422-2.939-2.012-4.706-4.706-3.823-5.979s3.972-.639,7.012,1.422C155.114,28.3,156.876,31,156,32.273Z" transform="translate(-132.492 -18.798)" fill="#fff" fill-rule="evenodd" />
                                    </g>
                                    <path id="Path_6219" data-name="Path 6219" d="M739.791,38.364a13.886,13.886,0,0,1-4.808-.892,12.73,12.73,0,0,1-4.083-2.337l2.6-3.87a11.467,11.467,0,0,0,3.021,1.871,8.517,8.517,0,0,0,3.233.679,4.5,4.5,0,0,0,2.125-.467,1.377,1.377,0,0,0,.892-1.233,1.006,1.006,0,0,0-.513-.892c-.171-.129-.383-.212-.554-.342a4.207,4.207,0,0,0-.808-.3c-.342-.083-.637-.171-.892-.254-.342-.083-.725-.212-1.062-.3-4.845-1.2-7.228-3.408-7.228-6.683a5.338,5.338,0,0,1,2.212-4.508,9.331,9.331,0,0,1,5.87-1.7,12.207,12.207,0,0,1,4.212.679,8.968,8.968,0,0,1,3.146,1.829l-2.337,3.912a7.786,7.786,0,0,0-5.062-1.871,4.01,4.01,0,0,0-2,.425,1.259,1.259,0,0,0-.767,1.1c0,.467.3.85.892,1.192a12.209,12.209,0,0,0,2.508.85c.383.083.679.171.979.254s.725.212,1.275.425a12.017,12.017,0,0,1,1.487.6,10.094,10.094,0,0,1,1.4.85,6.506,6.506,0,0,1,1.233,1.15,5.365,5.365,0,0,1,1.192,3.358,5.5,5.5,0,0,1-1.1,3.358,6.8,6.8,0,0,1-2.933,2.254,10.1,10.1,0,0,1-4.166.808Zm22.5-1.741a7.72,7.72,0,0,1-5.274,1.746,7.877,7.877,0,0,1-5.274-1.746,5.988,5.988,0,0,1-2-4.679V22.882h4.808v8.378a2.411,2.411,0,0,0,.679,1.787,2.58,2.58,0,0,0,1.787.679,2.255,2.255,0,0,0,1.746-.679,2.283,2.283,0,0,0,.679-1.787V22.882h4.808V31.94a6.041,6.041,0,0,1-2,4.679h.042Zm10.29,1.741a10.759,10.759,0,0,1-6.591-2.254l2.125-3.02a7.066,7.066,0,0,0,4.3,1.575,3.792,3.792,0,0,0,1.529-.254.791.791,0,0,0,0-1.533,9.637,9.637,0,0,0-1.871-.508c-.467-.083-.808-.171-1.062-.212-.342-.083-.725-.212-1.062-.3a11.574,11.574,0,0,1-1.1-.425c-.254-.171-.554-.342-.937-.6a3.627,3.627,0,0,1-.808-.808,3.348,3.348,0,0,1-.467-1.062,5.289,5.289,0,0,1-.212-1.4A4.4,4.4,0,0,1,767.3,24.8a5.439,5.439,0,0,1,2.3-1.7,9.684,9.684,0,0,1,3.233-.554,10.282,10.282,0,0,1,6.124,1.958l-2.125,3.02A7.311,7.311,0,0,0,773,26.249a3.647,3.647,0,0,0-1.317.212.71.71,0,0,0-.508.679.843.843,0,0,0,.6.725,9.637,9.637,0,0,0,1.871.508c.425.083.767.171,1.062.212.3.083.637.171,1.062.3a6.083,6.083,0,0,1,2,1.021,3.539,3.539,0,0,1,.808.808,3.753,3.753,0,0,1,.508,1.1,4.644,4.644,0,0,1,.212,1.362,4.568,4.568,0,0,1-1.871,3.829A8.183,8.183,0,0,1,772.579,38.364ZM790.61,22.5a5.685,5.685,0,0,1,4.125,1.529,5.485,5.485,0,0,1,1.575,4.125v9.824H791.5V29.773a2.573,2.573,0,0,0-.679-1.912,2.469,2.469,0,0,0-1.829-.725,2.8,2.8,0,0,0-2,.725,2.636,2.636,0,0,0-.766,1.958v8.166h-4.808V16.633h4.812v7.653A5.8,5.8,0,0,1,790.61,22.5Zm11.015-1.279a2.953,2.953,0,0,1-2.083-.808,2.884,2.884,0,0,1-.85-2.083,2.946,2.946,0,0,1,5.016-2.083,2.978,2.978,0,0,1,0,4.166A2.778,2.778,0,0,1,801.625,21.224Zm-2.379,16.756V22.841h4.808v15.14Z" transform="translate(-695.777 -12.922)" fill="#fff" />
                                </g>
                            </g>
                        </svg>