<svg xmlns="http://www.w3.org/2000/svg" width="33.978" height="33.977" viewBox="0 0 33.978 33.977">
  <path id="Subtraction_35" data-name="Subtraction 35" d="M-174.012-4525.022h-.011a16.956,16.956,0,0,1-11.394-4.4,16.955,16.955,0,0,1-5.5-10.906,16.954,16.954,0,0,1,3.239-11.775,16.955,16.955,0,0,1,10.3-6.559A17.07,17.07,0,0,1-174-4559a16.891,16.891,0,0,1,5.307.854,17.038,17.038,0,0,1,4.71,2.423,16.856,16.856,0,0,1,6.2,8.705,16.957,16.957,0,0,1-.836,12.185,16.956,16.956,0,0,1-8.794,8.474A16.9,16.9,0,0,1-174.012-4525.022Zm-3.93-14.15a.914.914,0,0,0-.849.592,4.005,4.005,0,0,0,1.288,3.721l.031.032c.536.537.536.537,1.92,1.2l.107.05c.157.076.167.113.206.785.058,1.026.364,1.445,1.054,1.445s.986-.4,1.049-1.439c.043-.671.054-.715.21-.791l.1-.048c1.39-.661,1.39-.661,1.922-1.195l.037-.038a4.563,4.563,0,0,0,1.177-4.828,5.1,5.1,0,0,0-4.392-3.226h-.08a2.717,2.717,0,0,1-1.92-.794,2.812,2.812,0,0,1-.531-3.051,2.7,2.7,0,0,1,2.41-1.5,2.708,2.708,0,0,1,.468.041,2.7,2.7,0,0,1,2.205,2.357c.109.87.434,1.258,1.051,1.258h.043a.92.92,0,0,0,.85-.592,4.008,4.008,0,0,0-1.289-3.72l-.031-.032c-.535-.537-.535-.537-1.921-1.2l-.106-.051c-.157-.075-.167-.112-.206-.784-.04-.756-.135-1.015-.458-1.258a1.1,1.1,0,0,0-.638-.241c-.557,0-.953.585-1.009,1.491-.043.671-.054.715-.21.79l-.107.051c-1.384.657-1.384.657-1.916,1.193l-.035.035a4.561,4.561,0,0,0-1.176,4.829,5.1,5.1,0,0,0,4.391,3.225h.091a2.731,2.731,0,0,1,2.442,1.527,3.157,3.157,0,0,1,0,2.32,2.7,2.7,0,0,1-2.411,1.506,2.731,2.731,0,0,1-.475-.042,2.7,2.7,0,0,1-2.2-2.374c-.1-.858-.427-1.242-1.046-1.242Z" transform="translate(190.999 4559)"/>
</svg>
