<svg xmlns="http://www.w3.org/2000/svg" width="25.283" height="33.386" viewBox="0 0 25.283 33.386">
  <path id="Union_1" data-name="Union 1" d="M1.148,41.006A1.161,1.161,0,0,1,0,39.836V21.131a1.161,1.161,0,0,1,1.148-1.169h.2v.016H3.522A10.586,10.586,0,0,1,8.694,8.94a10.253,10.253,0,0,1,14.061,4.1l.54.99-2.01,1.132-.539-.989A7.975,7.975,0,0,0,9.809,10.985a8.239,8.239,0,0,0-3.94,8.993H23.7v-.017h.439a1.161,1.161,0,0,1,1.149,1.17V39.836a1.161,1.161,0,0,1-1.149,1.169ZM9.387,28.13a3.529,3.529,0,0,0,2.1,4.476v2.555a1.149,1.149,0,1,0,2.3,0V32.608a3.464,3.464,0,0,0,2.1-2.141l0,0a3.538,3.538,0,0,0-.143-2.68,3.445,3.445,0,0,0-1.962-1.8,3.387,3.387,0,0,0-1.148-.2A3.458,3.458,0,0,0,9.387,28.13Z" transform="translate(0 -7.619)"/>
</svg>
