<svg xmlns="http://www.w3.org/2000/svg" width="31.852" height="31.857" viewBox="0 0 31.852 31.857">
  <path id="Subtração_8" data-name="Subtração 8" d="M15.928,31.857h0l-3.573-2.591-4.391.464-1.8-4.037L2.133,23.9l.464-4.39L0,15.928l2.591-3.573L2.128,7.964l4.037-1.8,1.8-4.035,4.39.464L15.928,0,19.5,2.591l4.391-.464,1.8,4.037,4.035,1.8-.464,4.39,2.591,3.575L29.265,19.5l.464,4.391-4.037,1.8-1.8,4.035-4.39-.464-3.575,2.591ZM9.914,15.78a.512.512,0,0,0-.364.151L8.087,17.382a.515.515,0,0,0,0,.729l4.375,4.382a.516.516,0,0,0,.729,0L23.4,12.289a.516.516,0,0,0,0-.728L21.94,10.1a.515.515,0,0,0-.729,0l-8.381,8.38-2.55-2.549a.512.512,0,0,0-.368-.147Z"/>
</svg>
