<svg xmlns="http://www.w3.org/2000/svg" width="31.852" height="31.806" viewBox="0 0 31.852 31.806">
  <g id="svgg" transform="translate(-64.856 -34.943)">
    <path id="path0" d="M78.92,35.087c-3.073.366-7.8,2.523-8.274,3.779a17.2,17.2,0,0,0-.338,5.249.973.973,0,0,0,.446.271,2.92,2.92,0,0,1,.779.477l.443.372,1.482-.374a23.1,23.1,0,0,1,2.356-.473c.854-.1.882-.114,1.271-.811a2.5,2.5,0,0,1,3.193-1.125c.52.217.54.212,1.3-.346.425-.312.976-.685,1.225-.831.411-.239.453-.336.457-1.034a3.193,3.193,0,0,1,.265-1.266c.249-.473.249-.515,0-.9a15.86,15.86,0,0,0-3.276-3.139c-.157.011-.756.075-1.33.143m4.415.692c.375.392.892.977,1.15,1.3.436.548.516.587,1.144.548a2.51,2.51,0,0,1,2.079.715c.356.371.473.412.882.3l1.125-.294.653-.17-.792-.534a17.643,17.643,0,0,0-6.4-2.492l-.52-.091.681.712M89.97,39.71c-1.307.321-1.578.478-1.578.915a3.093,3.093,0,0,1-.382.989l-.382.693.355,1.034c.329.958.4,1.045.907,1.193a2.744,2.744,0,0,1,2.043,2.653c.005.622.034.66,1.139,1.459a27.244,27.244,0,0,1,2.813,2.573l1.679,1.753.1-1.156a16.02,16.02,0,0,0-4.1-11.574c-.869-.951-.878-.953-2.593-.532M68.221,41.142a16.707,16.707,0,0,0-3.167,7.243c-.089.529.076.76.293.41a6.421,6.421,0,0,1,.954-.734c.826-.561.861-.611.861-1.23a2.614,2.614,0,0,1,1.1-2.16l.559-.37.059-1.966c.033-1.082.046-1.987.03-2.013a5.5,5.5,0,0,0-.691.82m14.531,1.837c-1.441,1.012-1.367,1.3.435,1.664.689.14,1.667.385,2.174.544l.922.29.368-.391.368-.391L86.7,43.8l-.321-.893-.718-.1a3.285,3.285,0,0,1-1.076-.338c-.527-.346-.667-.307-1.832.512m-7.569,2.9c-1.561.287-2.752.664-2.753.87a3.431,3.431,0,0,1-.766,1.824c-.537.612-.513.74.586,3.1.856,1.839,1.2,1.932,1.743.477a26.579,26.579,0,0,1,2.4-4.625c1.114-1.627.825-2.022-1.207-1.648m6.272.412a2.157,2.157,0,0,1-2.211,1.1l-1.071.014-.627.881a25.306,25.306,0,0,0-2.275,4.423c-.172.537-.161.575.285.95A2.782,2.782,0,0,1,76.28,56.8c-.261.723,2.271,2.909,4.977,4.3l1.094.561.8-.54a2.277,2.277,0,0,1,1.612-.54h.814l.491-1.081a20.316,20.316,0,0,0,1.828-7.737l.095-2.032-.518-.171a2.767,2.767,0,0,1-1.764-2.4c0-.481-.478-.7-2.464-1.119-1.389-.294-1.442-.287-1.787.252m-14.791,3.24c-2.1,1.589-1.887,1.217-1.693,2.98a16.27,16.27,0,0,0,6.888,11.538c1.347.889,1.31.9,1.061-.44a27.755,27.755,0,0,1-.269-3.36l-.053-2.2-.516-.516a2.609,2.609,0,0,1-.453-3.195c.213-.325.189-.42-.363-1.492a24.484,24.484,0,0,1-1.008-2.285c-.408-1.111-.433-1.142-.98-1.215a2.66,2.66,0,0,1-1-.389l-.441-.314-1.17.885m23.05-.24c-.383.318-.394.376-.477,2.562a21.166,21.166,0,0,1-2.113,8.615l-.411.859.316.735a4.182,4.182,0,0,1,.316.957c0,.165.256.245,1.007.312.554.05,1.259.123,1.568.163,1.376.177,4.792-4.169,5.928-7.541l.316-.938-.569-.828A22.82,22.82,0,0,0,90.48,49.2c-.35-.223-.4-.217-.765.088m-15.2,8.9c-.949.232-.409,7.016.6,7.538a16.273,16.273,0,0,0,4.061.963c1.4.141,1.45.12,2.7-1.158l.722-.739-.237-.459a2.214,2.214,0,0,1-.237-.825c0-.308-.21-.48-1.305-1.072a24,24,0,0,1-4.661-3.229c-1.057-.925-1.33-1.094-1.641-1.018m12.142,6.732a2.661,2.661,0,0,1-2.235.835c-.732-.076-.8-.052-1.271.432l-.5.512.517-.09c2.229-.39,5.557-1.643,4.972-1.873a1.419,1.419,0,0,0-1.487.183" fillRule="evenodd"/>
  </g>
</svg>
