<svg xmlns="http://www.w3.org/2000/svg" width="35.593" height="31.532" viewBox="0 0 35.593 31.532">
  <g id="svgg" transform="translate(0.131 -22.556)">
    <path id="path0" d="M8.636,22.637c-7,.734-10.291,6.694-8.091,14.675,1.383,5.016,4.584,9.322,9.72,13.073A56.863,56.863,0,0,0,15.83,54a2.1,2.1,0,0,0,2.4-.939c.444-.688.661-.444-3.378-3.792-3.941-3.265-3.782-3.1-3.339-3.542.364-.364.239-.447,4.8,3.339s4.386,3.667,4.885,3.408A2.98,2.98,0,0,0,22.4,50.725c.019-.207-.126-.331-4.112-3.494-4.912-3.9-4.647-3.635-4.172-4.108.38-.38-.2-.777,5.625,3.853,3.456,2.744,4.376,3.445,4.536,3.445A2.4,2.4,0,0,0,26,48.508c0-.37.461.057-4.6-4.229-4.389-3.717-4.426-3.754-4.22-4.123.34-.606.26-.661,4.8,3.182C28.161,48.57,27.7,48.2,27.965,48.2c1.167,0,2.153-2.263,1.516-3.473-.189-.359-6.677-9.641-6.978-9.985-.359-.407-.372-.4-3.528,1.415-3.618,2.078-3.72,2.122-5.042,2.117A4.781,4.781,0,0,1,9.922,30.94c.387-.622.594-.817,3.647-3.468,2.46-2.136,2.777-2.444,2.778-2.69,0-1.115-4.784-2.443-7.706-2.137m15.523.005a12.958,12.958,0,0,0-6.423,2.668c-1.012.817-6.564,5.711-6.714,5.914a3.686,3.686,0,0,0,2.988,5.919c.931,0,1.219-.13,4.325-1.9,2.861-1.634,2.886-1.653,2.971-2.153.089-.538.65-.849.99-.546.076.067.538.7,1.025,1.407,1.031,1.495,1,1.459,1.455,1.459a4.069,4.069,0,0,0,2.356-.9c.546-.405.645-.424.94-.174.591.5-.354,1.419-2.016,1.966-.93.3-1.038.061,1.858,4.194,1.315,1.88,2.476,3.595,2.576,3.812.349.76.679.717,1.3-.175,3.643-5.261,4.715-12.127,2.571-16.471A9.849,9.849,0,0,0,24.159,22.64" transform="translate(0)" fillRule="evenodd"/>
  </g>
</svg>
