<svg xmlns="http://www.w3.org/2000/svg" width="31.852" height="31.72" viewBox="0 0 31.852 31.72">
  <path id="path0" d="M13.476.7c-.357.236-.412.4-.412,1.233v.761l-.171.037A14.912,14.912,0,0,0,8.54,4.473c-.415.265-.349.283-.854-.231-1-1.019-1.105-.987-3.034.928-1.961,1.946-2,2.074-.98,3.084.514.506.5.44.231.854a14.911,14.911,0,0,0-1.745,4.353l-.037.171H1.36c-1.374,0-1.35-.048-1.35,2.8s-.024,2.8,1.35,2.8h.76l.037.171A15.128,15.128,0,0,0,3.9,23.751c.265.415.283.349-.231.854-1.018,1-.986,1.1.928,3.033,1.946,1.961,2.074,2,3.084.98.506-.514.44-.5.854-.231a14.913,14.913,0,0,0,4.352,1.745l.171.037v.763c0,1.374-.048,1.35,2.8,1.35,2.44,0,2.4.005,2.679-.412.122-.183.192-7.544.073-7.543-.026,0-.226.057-.445.126a8.343,8.343,0,1,1,0-16.043,4.546,4.546,0,0,0,.445.126c.026,0,.046-1.657.046-3.682,0-4.087.021-3.87-.412-4.155a20.918,20.918,0,0,0-4.768,0M24.206.978a2.617,2.617,0,0,0-1.418,1.185l-.165.282h-2.1V4.31h2.1l.228.37a2.536,2.536,0,0,0,3.927.473A2.533,2.533,0,0,0,24.205.978M28.5,6.291a2.318,2.318,0,0,0-1.61,2.432l0,.777-.986.823-.986.823H20.52v1.865h2.566c2.318,0,2.581-.01,2.719-.106.085-.061.649-.52,1.254-1.025a13.5,13.5,0,0,1,1.169-.92,2.4,2.4,0,0,1,.376.1,2.524,2.524,0,0,0,2.516-4.175A2.632,2.632,0,0,0,28.5,6.292M14.561,10a6.351,6.351,0,0,0-5.192,6.435,6.471,6.471,0,0,0,8.935,6.09l.353-.132V10.472l-.349-.131A7.767,7.767,0,0,0,14.56,10m14,4.035a2.617,2.617,0,0,0-1.418,1.185l-.165.282H20.522V17.36h6.444l.228.37a2.518,2.518,0,1,0,1.359-3.7m-8.031,6.753v.933h4.392l.986.823.986.823,0,.777a1.952,1.952,0,0,0,.188,1.15A2.513,2.513,0,1,0,28.61,21.8a2.4,2.4,0,0,1-.376.1,13.5,13.5,0,0,1-1.169-.92c-.605-.506-1.17-.967-1.254-1.025-.139-.1-.4-.106-2.719-.106H20.522v.933m3.683,6.3a2.617,2.617,0,0,0-1.418,1.185l-.165.282h-2.1v1.862h2.1l.228.37a2.518,2.518,0,1,0,1.359-3.7" transform="translate(-0.01 -0.562)" fillRule="evenodd"/>
</svg>
