<svg xmlns="http://www.w3.org/2000/svg" width="29.956" height="35.22" viewBox="0 0 29.956 35.22">
  <g id="svgg" transform="translate(-29.907 0.234)">
    <path id="path0" d="M44.025-.084a3.86,3.86,0,0,0-.929.65,14.457,14.457,0,0,1-9.19,3.916C31.74,4.7,30.6,5.536,30.048,7.313a80.96,80.96,0,0,0,0,9.558c1.031,9.269,5.1,14.687,13.35,17.779,1.53.573,2.117.477,4.821-.771,7.053-3.262,10.559-8.455,11.5-17.043a79.738,79.738,0,0,0,0-9.524c-.548-1.777-1.693-2.616-3.859-2.83A14.473,14.473,0,0,1,46.671.566a2.441,2.441,0,0,0-2.648-.65M46.6,8.823a8.722,8.722,0,1,1-10.438,8.9A8.726,8.726,0,0,1,46.6,8.823m-2.886,1.927a6.747,6.747,0,1,0,5.6,1.585,6.732,6.732,0,0,0-5.6-1.585M48.55,14.5a1,1,0,0,1,.568,1.078,64.792,64.792,0,0,1-5.347,5.486c-.553.293-.806.152-2.13-1.186-1.28-1.293-1.368-1.492-.937-2.1.468-.664,1.007-.558,1.964.386l.637.628,2.046-2.035c2.537-2.524,2.6-2.566,3.2-2.254" transform="translate(0 0)" fillRule="evenodd"/>
  </g>
</svg>
