<svg xmlns="http://www.w3.org/2000/svg" width="24.33" height="34.132" viewBox="0 0 24.33 34.132">
  <path id="Subtraction_91" data-name="Subtraction 91" d="M-8013.2,38.926h-15.292a4.5,4.5,0,0,1-1.76-.355,4.494,4.494,0,0,1-1.437-.968,4.5,4.5,0,0,1-.967-1.437,4.474,4.474,0,0,1-.355-1.758V9.312a4.508,4.508,0,0,1,.355-1.759,4.52,4.52,0,0,1,.967-1.436,4.491,4.491,0,0,1,1.436-.968,4.483,4.483,0,0,1,1.767-.354h15.286a4.489,4.489,0,0,1,1.759.355,4.515,4.515,0,0,1,1.437.968,4.516,4.516,0,0,1,.968,1.436,4.489,4.489,0,0,1,.355,1.759v25.1a4.491,4.491,0,0,1-.355,1.759,4.483,4.483,0,0,1-.967,1.436,4.527,4.527,0,0,1-1.438.968,4.493,4.493,0,0,1-1.757.351Zm-7.708-7.515a2.086,2.086,0,0,0-2.085,2.085,2.086,2.086,0,0,0,2.085,2.085,2.088,2.088,0,0,0,2.086-2.085,2.054,2.054,0,0,0-.61-1.474,2.111,2.111,0,0,0-1.47-.611Zm-3.415-22.62a1.044,1.044,0,0,0-1.042,1.043,1.044,1.044,0,0,0,1.042,1.043h6.95a1.043,1.043,0,0,0,1.044-1.043,1.043,1.043,0,0,0-1.044-1.043Z" transform="translate(8033.011 -4.794)"/>
</svg>
