<svg xmlns="http://www.w3.org/2000/svg" width="46.702" height="46.705" viewBox="0 0 46.702 46.705">
  <path id="Subtraction_38" data-name="Subtraction 38" d="M23.354,46.7a23.359,23.359,0,0,1-9.09-44.87A23.214,23.214,0,0,1,23.354,0h.07a23.08,23.08,0,0,1,9.956,2.274A24.005,24.005,0,0,1,41.4,8.533a22.079,22.079,0,0,1,3.862,6.7A23.395,23.395,0,0,1,23.354,46.7ZM18.115,33.875h0v0l0,0,0-14.366H13.294V33.875Zm2.6-14.37v14.37h4.821V29.688c0-4.647,0-4.647.285-5.225a2.518,2.518,0,0,1,2.29-1.482h.124a2.161,2.161,0,0,1,2.127,1.837l.109.364.013,4.344.014,4.348h4.821V29.4c0-2.8-.018-4.641-.049-4.923-.3-2.766-1.661-4.544-3.934-5.143a7.2,7.2,0,0,0-1.437-.146H29.69a4.526,4.526,0,0,0-.791.07,6.205,6.205,0,0,0-3.168,2.028l-.193.226V19.505ZM15.78,12.579a3.571,3.571,0,0,0-.9.119A2.476,2.476,0,0,0,15,17.512a3.7,3.7,0,0,0,.737.077h.081a2.739,2.739,0,0,0,1.905-.766,2.411,2.411,0,0,0,.69-1.738,2.485,2.485,0,0,0-.729-1.772,2.516,2.516,0,0,0-1.769-.735H15.78Z" fill="#589b74"/>
</svg>
