<svg xmlns="http://www.w3.org/2000/svg" width="56" height="56" viewBox="0 0 56 56">
  <g id="Group_163001" data-name="Group 163001" transform="translate(-1357 -2696)">
    <g id="Rectangle_10731" data-name="Rectangle 10731" transform="translate(1357 2696)" fill="#0e1f17" stroke="#589b74" strokeWidth="2">
      <rect width="56" height="56" rx="6" stroke="none"/>
      <rect x="1" y="1" width="54" height="54" rx="5" fill="none"/>
    </g>
    <path id="Subtraction_35" data-name="Subtraction 35" d="M21.045,34.721h-.18a13.441,13.441,0,0,1-7.3-2.149,8.859,8.859,0,0,0,1.078.075h.077A9.713,9.713,0,0,0,20.651,30.6a4.856,4.856,0,0,1-4.477-3.337,4.4,4.4,0,0,0,.842.082h.1a4.827,4.827,0,0,0,1.225-.158,4.83,4.83,0,0,1-3.836-4.712v-.053a4.76,4.76,0,0,0,2.163.591,4.8,4.8,0,0,1-1.474-6.4,13.592,13.592,0,0,0,9.872,5.015,4.926,4.926,0,0,1-.111-1.093,4.79,4.79,0,0,1,8.284-3.277,9.558,9.558,0,0,0,3.04-1.16,4.755,4.755,0,0,1-2.108,2.647,10,10,0,0,0,2.764-.755,9.514,9.514,0,0,1-2.4,2.487c.012.236.017.428.017.619a13.626,13.626,0,0,1-3.963,9.656,13.453,13.453,0,0,1-9.539,3.965h0Z" transform="translate(1359.432 2699.255)" fill="#fff"/>
  </g>
</svg>
